{"title":"Rowdy (2014) Telugu Movie CAM xviD-[MVR]","uid":9911568,"size":420843475,"categoryP":"video","categoryS":"movies","magnet":"?xt=urn:btih:772b4e59e22a859c711a588fdd21dde416ef1b9d&amp;dn=Rowdy+%282014%29+Telugu+Movie+CAM+xviD-%5BMVR%5D&amp;tr=udp%3A%2F%2Ftracker.openbittorrent.com%3A80&amp;tr=udp%3A%2F%2Fopen.demonii.com%3A1337&amp;tr=udp%3A%2F%2Ftracker.coppersurfer.tk%3A6969&amp;tr=udp%3A%2F%2Fexodus.desync.com%3A6969","seeders":1,"leechers":0,"uploader":"InMp3HitZ","files":22,"time":1396907512,"description":"Screens:\n &lt;a href=&quot;\nhttp://ultraimg.com/images/qOlFk.png&quot; rel=&quot;nofollow&quot; target=&quot;_NEW&quot;&gt;\nhttp://ultraimg.com/images/qOlFk.png&lt;/a&gt; &lt;a href=&quot;\nhttp://ultraimg.com/images/YXnkh.png&quot; rel=&quot;nofollow&quot; target=&quot;_NEW&quot;&gt;\nhttp://ultraimg.com/images/YXnkh.png&lt;/a&gt; &lt;a href=&quot;\nhttp://ultraimg.com/images/2704y.png&quot; rel=&quot;nofollow&quot; target=&quot;_NEW&quot;&gt;\nhttp://ultraimg.com/images/2704y.png&lt;/a&gt; &lt;a href=&quot;\nhttp://ultraimg.com/images/bE5qZ.png&quot; rel=&quot;nofollow&quot; target=&quot;_NEW&quot;&gt;\nhttp://ultraimg.com/images/bE5qZ.png&lt;/a&gt; &lt;a href=&quot;\nhttp://ultraimg.com/images/WHhY9.png&quot; rel=&quot;nofollow&quot; target=&quot;_NEW&quot;&gt;\nhttp://ultraimg.com/images/WHhY9.png&lt;/a&gt; &lt;a href=&quot;\nhttp://ultraimg.com/images/MIj1k.png&quot; rel=&quot;nofollow&quot; target=&quot;_NEW&quot;&gt;\nhttp://ultraimg.com/images/MIj1k.png&lt;/a&gt; &lt;a href=&quot;\nhttp://ultraimg.com/images/KO9qh.png&quot; rel=&quot;nofollow&quot; target=&quot;_NEW&quot;&gt;\nhttp://ultraimg.com/images/KO9qh.png&lt;/a&gt; &lt;a href=&quot;\nhttp://ultraimg.com/images/X0qHJ.png&quot; rel=&quot;nofollow&quot; target=&quot;_NEW&quot;&gt;\nhttp://ultraimg.com/images/X0qHJ.png&lt;/a&gt; &lt;a href=&quot;\nhttp://ultraimg.com/images/c8tr.png&quot; rel=&quot;nofollow&quot; target=&quot;_NEW&quot;&gt;\nhttp://ultraimg.com/images/c8tr.png&lt;/a&gt; &lt;a href=&quot;\nhttp://ultraimg.com/images/tPypu.png&quot; rel=&quot;nofollow&quot; target=&quot;_NEW&quot;&gt;\nhttp://ultraimg.com/images/tPypu.png&lt;/a&gt; &lt;a href=&quot;\nhttp://ultraimg.com/images/6kxoT.png&quot; rel=&quot;nofollow&quot; target=&quot;_NEW&quot;&gt;\nhttp://ultraimg.com/images/6kxoT.png&lt;/a&gt; &lt;a href=&quot;\nhttp://ultraimg.com/images/L2bRy.png&quot; rel=&quot;nofollow&quot; target=&quot;_NEW&quot;&gt;\nhttp://ultraimg.com/images/L2bRy.png&lt;/a&gt; &lt;a href=&quot;\nhttp://ultraimg.com/images/2qUpw.png&quot; rel=&quot;nofollow&quot; target=&quot;_NEW&quot;&gt;\nhttp://ultraimg.com/images/2qUpw.png&lt;/a&gt; &lt;a href=&quot;\nhttp://ultraimg.com/images/v6y1S.png&quot; rel=&quot;nofollow&quot; target=&quot;_NEW&quot;&gt;\nhttp://ultraimg.com/images/v6y1S.png&lt;/a&gt; &lt;a href=&quot;\nhttp://ultraimg.com/images/ytUm.png&quot; rel=&quot;nofollow&quot; target=&quot;_NEW&quot;&gt;\nhttp://ultraimg.com/images/ytUm.png&lt;/a&gt; &lt;a href=&quot;\nhttp://ultraimg.com/images/Yv4Nx.png&quot; rel=&quot;nofollow&quot; target=&quot;_NEW&quot;&gt;\nhttp://ultraimg.com/images/Yv4Nx.png&lt;/a&gt; &lt;a href=&quot;\nhttp://ultraimg.com/images/kGrmT.png&quot; rel=&quot;nofollow&quot; target=&quot;_NEW&quot;&gt;\nhttp://ultraimg.com/images/kGrmT.png&lt;/a&gt; &lt;a href=&quot;\nhttp://ultraimg.com/images/bXRzD.png&quot; rel=&quot;nofollow&quot; target=&quot;_NEW&quot;&gt;\nhttp://ultraimg.com/images/bXRzD.png&lt;/a&gt; &lt;a href=&quot;\nhttp://ultraimg.com/images/NmBc.png&quot; rel=&quot;nofollow&quot; target=&quot;_NEW&quot;&gt;\nhttp://ultraimg.com/images/NmBc.png&lt;/a&gt; &lt;a href=&quot;\nhttp://ultraimg.com/images/4PTmZ.png&quot; rel=&quot;nofollow&quot; target=&quot;_NEW&quot;&gt;\nhttp://ultraimg.com/images/4PTmZ.png&lt;/a&gt;\n\nNFO:\n\nFormat                                   : Flash Video\nFile size                                : 392 MiB\nDuration                                 : 1h 40mn\nOverall bit rate                         : 548 Kbps\nTagging application                      : Yet Another Metadata Injector for FLV - Version 1.9\n\nVideo\nFormat                                   : AVC\nFormat/Info                              : Advanced Video Codec\nFormat profile                           : &lt;a class=&quot;__cf_email__&quot; href=&quot;/cdn-cgi/l/email-protection&quot; data-cfemail=&quot;0a42636d624a4639243a&quot;&gt;[email&amp;#160;protected]&lt;/a&gt;&lt;script cf-hash='f9e31' type=&quot;text/javascript&quot;&gt;\n/* &lt;![CDATA[ */!function(){try{var t=&quot;currentScript&quot;in document?document.currentScript:function(){for(var t=document.getElementsByTagName(&quot;script&quot;),e=t.length;e--;)if(t[e].getAttribute(&quot;cf-hash&quot;))return t[e]}();if(t&amp;&amp;t.previousSibling){var e,r,n,i,c=t.previousSibling,a=c.getAttribute(&quot;data-cfemail&quot;);if(a){for(e=&quot;&quot;,r=parseInt(a.substr(0,2),16),n=2;a.length-n;n+=2)i=parseInt(a.substr(n,2),16)^r,e+=String.fromCharCode(i);e=document.createTextNode(e),c.parentNode.replaceChild(e,c)}}}catch(u){}}();/* ]]&gt; */&lt;/script&gt;\nFormat settings, CABAC                   : Yes\nFormat settings, ReFrames                : 4 frames\nCodec ID                                 : 7\nDuration                                 : 1h 40mn\nBit rate                                 : 398 Kbps\nWidth                                    : 720 pixels\nHeight                                   : 480 pixels\nDisplay aspect ratio                     : 3:2\nFrame rate mode                          : Constant\nFrame rate                               : 25.000 fps\nStandard                                 : NTSC\nColor space                              : YUV\nChroma subsampling                       : 4:2:0\nBit depth                                : 8 bits\nScan type                                : Progressive\nBits/(Pixel*Frame)                       : 0.046\nStream size                              : 293 MiB (75%)\nWriting library                          : x264 core 138\nEncoding settings                        : cabac=1 / ref=2 / deblock=1:0:0 / analyse=0x3:0x113 / me=hex / subme=4 / psy=1 / psy_rd=1.00:0.00 / mixed_ref=0 / me_range=16 / chroma_me=1 / trellis=1 / 8x8dct=1 / cqm=0 / deadzone=21,11 / fast_pskip=1 / chroma_qp_offset=0 / threads=36 / lookahead_threads=3 / sliced_threads=0 / nr=0 / decimate=1 / interlaced=0 / bluray_compat=0 / constrained_intra=0 / bframes=3 / b_pyramid=2 / b_adapt=1 / b_bias=0 / direct=1 / weightb=1 / open_gop=0 / weightp=1 / keyint=250 / keyint_min=25 / scenecut=40 / intra_refresh=0 / rc_lookahead=20 / rc=crf / mbtree=1 / crf=26.0 / qcomp=0.60 / qpmin=0 / qpmax=69 / qpstep=4 / vbv_maxrate=800 / vbv_bufsize=4000 / crf_max=0.0 / nal_hrd=none / ip_ratio=1.40 / aq=1:1.00\n\nAudio\nFormat                                   : AAC\nFormat/Info                              : Advanced Audio Codec\nFormat profile                           : LC\nCodec ID                                 : 10\nDuration                                 : 1h 40mn\nBit rate                                 : 129 Kbps\nChannel(s)                               : 2 channels\nChannel positions                        : Front: L R\nSampling rate                            : 44.1 KHz\nCompression mode                         : Lossy\nStream size                              : 97.4 MiB (25%)\n\n","torrent":{"xt":"urn:btih:772b4e59e22a859c711a588fdd21dde416ef1b9d","amp;dn":"Rowdy+%282014%29+Telugu+Movie+CAM+xviD-%5BMVR%5D","amp;tr":["udp%3A%2F%2Ftracker.openbittorrent.com%3A80","udp%3A%2F%2Fopen.demonii.com%3A1337","udp%3A%2F%2Ftracker.coppersurfer.tk%3A6969","udp%3A%2F%2Fexodus.desync.com%3A6969"],"infoHash":"772b4e59e22a859c711a588fdd21dde416ef1b9d","infoHashBuffer":{"type":"Buffer","data":[119,43,78,89,226,42,133,156,113,26,88,143,221,33,221,228,22,239,27,157]},"announce":[],"urlList":[]}}